<svg width="38" height="38" viewBox="0 0 38 38" fill="none" xmlns="http://www.w3.org/2000/svg">
<path d="M26.2947 31.3839H9.33039C9.10543 31.3839 8.88968 31.2946 8.73061 31.1355C8.57154 30.9764 8.48218 30.7607 8.48218 30.5357V28.8393C8.48218 28.6143 8.57154 28.3986 8.73061 28.2395C8.88968 28.0804 9.10543 27.9911 9.33039 27.9911C9.55695 28.0057 9.78402 27.9718 9.99646 27.8917C10.2089 27.8116 10.4018 27.6871 10.5623 27.5266C10.7229 27.3661 10.8473 27.1731 10.9274 26.9607C11.0075 26.7483 11.0414 26.5212 11.0268 26.2946V10.1786C11.0268 9.3776 9.34447 9.33036 9.32793 9.33036C9.10362 9.32899 8.88892 9.23911 8.73053 9.08027C8.57214 8.92142 8.48289 8.70646 8.48218 8.48214V6.78571C8.48218 6.56075 8.57154 6.34501 8.73061 6.18594C8.88968 6.02686 9.10543 5.9375 9.33039 5.9375H27.1429C27.3679 5.9375 27.5836 6.02686 27.7427 6.18594C27.9017 6.34501 27.9911 6.56075 27.9911 6.78571V12.7232C27.9911 12.9482 27.9017 13.1639 27.7427 13.323C27.5836 13.4821 27.3679 13.5714 27.1429 13.5714H25.4465C25.2215 13.5714 25.0058 13.4821 24.8467 13.323C24.6876 13.1639 24.5982 12.9482 24.5982 12.7232C24.4665 11.7683 24.0395 10.8786 23.3768 10.1786H16.9643V16.9643H21.2054C21.432 16.9789 21.659 16.945 21.8715 16.8649C22.0839 16.7848 22.2768 16.6603 22.4373 16.4998C22.5979 16.3393 22.7223 16.1464 22.8024 15.9339C22.8825 15.7215 22.9164 15.4944 22.9018 15.2679C22.9018 15.0429 22.9912 14.8271 23.1503 14.6681C23.3093 14.509 23.5251 14.4196 23.75 14.4196H24.5982C24.8232 14.4196 25.039 14.509 25.198 14.6681C25.3571 14.8271 25.4465 15.0429 25.4465 15.2679V22.9018C25.4465 23.1267 25.3571 23.3425 25.198 23.5016C25.039 23.6606 24.8232 23.75 24.5982 23.75H23.75C23.5251 23.75 23.3093 23.6606 23.1503 23.5016C22.9912 23.3425 22.9018 23.1267 22.9018 22.9018C22.9165 22.6752 22.8826 22.4481 22.8025 22.2357C22.7225 22.0232 22.598 21.8303 22.4375 21.6697C22.2769 21.5092 22.084 21.3847 21.8715 21.3046C21.6591 21.2246 21.432 21.1907 21.2054 21.2054H16.9643V27.1429H22.9018C25.6884 27.1429 27.1884 23.4721 27.2034 23.4348C27.2664 23.2774 27.3752 23.1426 27.5156 23.0476C27.656 22.9526 27.8216 22.9018 27.9911 22.9018H28.8393C28.9764 22.9018 29.1114 22.935 29.2328 22.9985C29.3543 23.0621 29.4585 23.1541 29.5366 23.2668C29.6147 23.3794 29.6643 23.5093 29.6812 23.6454C29.6981 23.7814 29.6818 23.9195 29.6337 24.0478L27.089 30.8335C27.0283 30.9952 26.9198 31.1345 26.7779 31.2328C26.6359 31.3312 26.4674 31.3839 26.2947 31.3839ZM10.1786 29.6875H25.7065L26.6293 27.2277C25.6465 28.2333 24.3077 28.8122 22.9018 28.8393H16.1161C15.8911 28.8393 15.6754 28.7499 15.5163 28.5908C15.3573 28.4318 15.2679 28.216 15.2679 27.9911V20.3571C15.2679 20.1322 15.3573 19.9164 15.5163 19.7574C15.6754 19.5983 15.8911 19.5089 16.1161 19.5089H21.2054C21.6794 19.5106 22.1483 19.6062 22.5851 19.7903C23.0219 19.9743 23.4178 20.2432 23.75 20.5812V17.5786C23.4331 17.9369 23.0402 18.2199 22.6 18.4071C22.1598 18.5943 21.6833 18.681 21.2054 18.6607H16.1161C15.8911 18.6607 15.6754 18.5713 15.5163 18.4123C15.3573 18.2532 15.2679 18.0375 15.2679 17.8125V9.33036C15.2679 9.1054 15.3573 8.88965 15.5163 8.73058C15.6754 8.57151 15.8911 8.48214 16.1161 8.48214H23.75C23.8614 8.48213 23.9717 8.50408 24.0746 8.54672C24.1775 8.58937 24.271 8.65187 24.3497 8.73067C25.2189 9.6074 25.8535 10.6887 26.1953 11.875H26.2947V7.63393H10.1786V7.71307C11.3391 7.923 12.7232 8.58902 12.7232 10.1786V26.2946C12.7406 27.0535 12.4976 27.7954 12.0346 28.3969C11.5716 28.9983 10.9166 29.4231 10.1786 29.6006V29.6875Z" fill="#FFFBFB"/>
<path d="M33.0804 37.3214H4.24107C3.11668 37.3201 2.03871 36.8729 1.24364 36.0778C0.448575 35.2827 0.00132444 34.2048 0 33.0804V4.24107C0.00132444 3.11668 0.448575 2.03871 1.24364 1.24364C2.03871 0.448575 3.11668 0.00132444 4.24107 0H33.0804C34.2048 0.00132444 35.2827 0.448575 36.0778 1.24364C36.8729 2.03871 37.3201 3.11668 37.3214 4.24107V33.0804C37.3201 34.2048 36.8729 35.2827 36.0778 36.0778C35.2827 36.8729 34.2048 37.3201 33.0804 37.3214ZM4.24107 1.69643C3.56642 1.69717 2.91961 1.9655 2.44256 2.44256C1.9655 2.91961 1.69717 3.56642 1.69643 4.24107V33.0804C1.69717 33.755 1.9655 34.4018 2.44256 34.8789C2.91961 35.3559 3.56642 35.6243 4.24107 35.625H33.0804C33.755 35.6243 34.4018 35.3559 34.8789 34.8789C35.3559 34.4018 35.6243 33.755 35.625 33.0804V4.24107C35.6243 3.56642 35.3559 2.91961 34.8789 2.44256C34.4018 1.9655 33.755 1.69717 33.0804 1.69643H4.24107Z" fill="#FFFBFB"/>
</svg>
